<svg width="43" height="29" viewBox="0 0 43 29" fill="none" xmlns="http://www.w3.org/2000/svg">
<path d="M13.814 9.03853C10.7332 9.03853 8.24864 7.021 8.24864 4.51926C8.24864 2.01753 10.7332 0 13.814 0C16.8948 0 19.3793 2.01753 19.3793 4.51926C19.3793 7.021 16.8948 9.03853 13.814 9.03853ZM22.1951 15.7636C21.7976 15.7636 21.4995 15.9654 21.4995 16.3285V28.8372H6.26101V16.9472C6.26101 16.6244 6.01256 16.3823 5.56534 16.3823C5.16782 16.3823 4.86968 16.5841 4.86968 16.9472V28.8372H0V15.8309C0 12.7104 3.09738 10.1683 6.94012 10.1683H19.5615C21.3835 10.1683 23.1061 10.7333 24.4809 11.8093C24.5306 11.8496 29.0193 16.0461 30.0794 17.0414L37.4998 12.7642C37.7151 12.6432 37.947 12.5625 38.1789 12.5087V11.0157C36.5226 10.7871 35.2637 9.61689 35.2637 8.21807V4.02161H35.2803V3.55085H42.237V4.02161H42.2536V8.23152C42.2536 9.63034 40.9947 10.8005 39.3384 11.0292V12.5221C39.8187 12.6297 40.2494 12.8584 40.5475 13.2081C41.2432 14.0151 41.0113 15.1315 40.0175 15.6964L39.3384 16.0864V18.9379H42.3529V19.8928H35.065V18.9379H38.1624V16.7589L30.6922 21.063C30.2947 21.2782 29.864 21.3858 29.4168 21.3858C28.8205 21.3858 28.2243 21.1841 27.7936 20.794C27.7108 20.7402 27.6445 20.6864 27.5783 20.6326L22.6589 15.925C22.5098 15.804 22.3939 15.7502 22.1951 15.7636ZM36.4232 6.9672H41.0775V4.49236H36.4232V6.9672Z" fill="#F7EEE9"/>
</svg>
