<svg width="26" height="40" viewBox="0 0 26 40" fill="none" xmlns="http://www.w3.org/2000/svg">
<path d="M25.4046 24.117L24.259 16.4798C24.2094 16.1486 23.7912 15.8963 23.2919 15.8963H16.9278C16.7534 15.1719 16.2908 14.4857 15.5801 13.9171L12.7994 11.6926C12.17 11.1889 11.8232 10.5506 11.8232 9.89512V3.89244C12.4407 3.66376 12.8599 3.22479 12.8599 2.72138V1.33909C12.8599 0.600691 11.9589 0 10.8513 0H6.7044C5.59679 0 4.69576 0.600691 4.69576 1.33909V2.72138C4.69576 3.22479 5.11498 3.66376 5.73247 3.89244V9.89512C5.73247 10.5506 5.38582 11.189 4.75627 11.6926L1.97554 13.9171C1.05545 14.6532 0.548889 15.5862 0.548889 16.5443V37.9698C0.548889 39.0892 1.91502 40 3.59425 40C3.59425 40 12.2101 40 12.2767 40H19.7929C20.3297 40 20.7649 39.7099 20.7649 39.3521C20.7649 38.9942 20.3297 38.7041 19.7929 38.7041C18.2567 38.7041 17.0068 37.8708 17.0068 36.8467V31.0583C17.0068 31.0324 17.0038 31.0069 16.9994 30.9819C19.2995 30.824 21.4532 30.1038 23.018 28.9511C24.7987 27.6393 25.6687 25.8773 25.4046 24.117ZM6.6396 1.33909C6.6396 1.31525 6.66863 1.2959 6.7044 1.2959H10.8513C10.887 1.2959 10.9161 1.31525 10.9161 1.33909V2.72138C10.9161 2.74523 10.887 2.76458 10.8513 2.76458H6.7044C6.66863 2.76458 6.6396 2.74523 6.6396 2.72138V1.33909ZM2.49273 16.5443C2.49273 15.8887 2.83951 15.2504 3.46893 14.7468L6.24967 12.5222C7.16975 11.7862 7.67632 10.8532 7.67632 9.89512V4.06048H9.87934V9.89512C9.87934 10.8531 10.386 11.7862 11.306 12.5222L14.0867 14.7468C14.5056 15.0818 14.7982 15.4766 14.9479 15.8963H8.77783C8.27852 15.8963 7.86033 16.1486 7.8107 16.4798L7.27627 20.0432H2.49273V16.5443ZM2.49286 21.3391H7.08189L6.66526 24.117C6.40116 25.8773 7.27109 27.6393 9.05178 28.951C9.60591 29.3592 10.234 29.7131 10.9162 30.0072V31.7495C10.9162 32.1544 10.4221 32.4838 9.81468 32.4838H2.49286V21.3391ZM8.59951 24.2459L9.03545 21.3391H9.81455C10.4219 21.3391 10.9161 21.6685 10.9161 22.0734V24.8812H8.56815C8.55908 24.6702 8.56764 24.4581 8.59951 24.2459ZM15.0629 31.0583V36.8467C15.0629 37.8708 13.813 38.7041 12.2767 38.7041C12.2101 38.7041 3.59425 38.7041 3.59425 38.7041C2.98686 38.7041 2.49273 38.3747 2.49273 37.9698V33.7797H9.81455C11.4938 33.7797 12.8599 32.8689 12.8599 31.7495V30.6454C13.5706 30.8151 14.312 30.9298 15.0703 30.9819C15.0659 31.007 15.0629 31.0324 15.0629 31.0583ZM21.5769 28.0815C20.164 29.1223 18.146 29.7192 16.0404 29.7192H16.0293C13.9237 29.7192 11.9057 29.1223 10.4928 28.0815C9.74353 27.5295 9.1999 26.8765 8.88357 26.1771H23.1861C22.8698 26.8765 22.3262 27.5295 21.5769 28.0815ZM23.5017 24.8812H12.8599V22.0734C12.8599 20.954 11.4938 20.0432 9.81455 20.0432H9.22984L9.65748 17.1922H22.4123L23.4703 24.2459C23.5022 24.4581 23.5107 24.6702 23.5017 24.8812Z" fill="#F7EEE9"/>
</svg>
